<?xml version="1.0" encoding="iso-8859-1"?>
<!-- Uploaded to: SVG Repo, www.svgrepo.com, Generator: SVG Repo Mixer Tools -->
<svg version="1.1" id="Layer_1" xmlns="http://www.w3.org/2000/svg" xmlns:xlink="http://www.w3.org/1999/xlink" 
	 viewBox="0 0 512 512" xml:space="preserve">
<polygon style="fill:#FF709D;" points="0,190.687 256,413.234 512,190.687 "/>
<polygon style="fill:#FFD3C7;" points="78.769,0 78.769,274.744 256,413.234 433.231,274.744 433.231,0 "/>
<rect x="247.56" y="321.007" style="fill:#FFFFFF;" width="16.879" height="80.57"/>
<path style="fill:#FF3776;" d="M360.088,149.099c0-57.486-46.602-104.088-104.088-104.088S151.912,91.613,151.912,149.099
	c0,54.569,53.188,112.094,97.128,143.468l-21.951,36.878h57.822l-21.951-36.878C306.9,261.193,360.088,203.668,360.088,149.099z"/>
<path style="fill:#FFFFFF;" d="M185.67,157.538c-4.661,0-8.44-3.778-8.44-8.44c0-43.433,35.336-78.769,78.769-78.769
	c4.661,0,8.44,3.778,8.44,8.44s-3.779,8.44-8.44,8.44c-34.126,0-61.89,27.764-61.89,61.89
	C194.11,153.761,190.331,157.538,185.67,157.538z"/>
<polygon style="fill:#FF3776;" points="466.989,421.978 306.402,351.343 256,390.728 205.598,351.343 45.011,421.978 0,512 512,512 
	"/>
<g>
	<polygon style="fill:#E60048;" points="0,190.687 0,512 205.598,351.343 	"/>
	<polygon style="fill:#E60048;" points="512,190.687 306.402,351.343 512,512 	"/>
</g>
</svg>